<?xml version="1.0" standalone="no"?>
<!DOCTYPE svg PUBLIC "-//W3C//DTD SVG 20010904//EN"
 "http://www.w3.org/TR/2001/REC-SVG-20010904/DTD/svg10.dtd">
<svg version="1.0" xmlns="http://www.w3.org/2000/svg"
 width="364.000000pt" height="481.000000pt" viewBox="0 0 364.000000 481.000000"
 preserveAspectRatio="xMidYMid meet">

<g transform="translate(0.000000,481.000000) scale(0.100000,-0.100000)"
fill="#000000" stroke="none">
<path d="M53 3188 c4 -1678 1 -1604 57 -1824 77 -304 224 -560 454 -790 271
-271 578 -429 961 -494 201 -34 459 -28 673 16 204 42 465 157 642 281 143
101 349 312 443 453 165 250 259 512 287 806 6 70 10 650 10 1612 l0 1502
-1765 0 -1766 0 4 -1562z m1799 755 l26 -28 -11 -152 -11 -153 -36 0 -37 0
-12 152 -11 152 27 28 c15 15 30 28 33 28 3 0 18 -12 32 -27z m-154 -10 c15
-9 29 -18 31 -20 5 -3 40 -248 41 -281 0 -21 -4 -23 -37 -20 l-37 3 -39 137
-39 136 21 31 c26 36 24 36 59 14z m303 -14 l21 -31 -39 -136 -39 -137 -37 -3
c-44 -4 -43 -10 -22 150 20 151 20 151 52 170 37 23 38 23 64 -13z m-437 -32
c24 -11 34 -29 72 -132 24 -66 44 -126 44 -132 0 -8 -14 -13 -39 -13 -40 0
-40 0 -86 85 -66 121 -71 136 -56 174 15 34 22 36 65 18z m577 -26 c11 -38 10
-43 -43 -143 l-56 -103 -41 -3 c-29 -2 -41 1 -41 10 0 7 20 67 44 133 38 103
48 121 72 132 45 19 52 16 65 -26z m-677 -53 c11 -14 116 -189 116 -193 0 -3
-24 -5 -52 -5 -53 0 -53 0 -105 64 -53 64 -58 80 -46 125 5 21 10 23 45 18 22
-3 41 -7 42 -9z m800 -10 c11 -44 5 -60 -46 -124 -53 -64 -53 -64 -105 -64
-29 0 -53 3 -53 6 0 16 117 193 130 197 41 12 68 7 74 -15z m-860 -135 l50
-54 -70 6 c-116 10 -114 9 -114 60 l0 45 43 -1 c38 -1 47 -7 91 -56z m966 12
c0 -51 2 -50 -114 -60 l-69 -6 49 55 c45 50 53 55 92 55 l42 1 0 -45z m-1145
-85 c308 -29 879 -28 1203 1 225 21 235 21 273 4 39 -18 39 -18 39 -74 -1 -55
-2 -58 -60 -118 l-59 -63 -151 0 -150 0 0 -44 c0 -42 -1 -44 -70 -90 l-70 -46
0 -244 c0 -231 1 -244 20 -261 20 -18 21 -18 35 1 26 35 28 55 6 78 l-21 22
46 68 46 68 -23 24 -23 24 40 41 c21 22 63 55 92 72 l52 32 0 62 0 62 72 -25
c48 -16 94 -24 139 -24 76 0 91 -11 60 -44 l-21 -22 136 -134 135 -135 -3 -59
c-3 -55 -5 -59 -39 -79 l-35 -20 -63 42 c-34 24 -95 54 -134 67 -91 31 -157
90 -157 141 0 23 -5 33 -15 33 -10 0 -15 -10 -15 -33 0 -27 11 -44 66 -97 63
-63 65 -66 59 -104 -5 -37 -3 -43 39 -85 34 -34 52 -65 70 -117 l24 -70 -42
-105 c-23 -57 -45 -113 -49 -123 -7 -18 -13 -15 -56 28 -33 33 -51 44 -56 36
-5 -8 16 -36 56 -76 l64 -63 105 63 106 62 70 -23 70 -23 33 -170 c19 -97 30
-177 26 -187 -4 -10 -10 -46 -14 -80 l-6 -62 -57 35 -57 35 21 44 22 45 -22
23 -22 23 24 23 24 23 -31 71 c-17 40 -32 74 -34 76 -1 2 -53 -37 -115 -86
-102 -81 -121 -92 -192 -111 l-78 -21 -116 94 c-63 52 -120 91 -126 88 -5 -4
12 -26 40 -50 l49 -44 -64 3 -64 3 -29 85 c-25 76 -28 97 -28 225 l0 141 -51
49 c-82 81 -79 65 -79 409 l0 306 65 42 c47 32 65 49 65 66 l0 22 -400 0 -400
0 0 -22 c0 -17 18 -34 65 -66 l65 -42 0 -309 0 -308 -29 -39 c-16 -21 -45 -55
-65 -73 l-36 -35 0 -92 c0 -69 -4 -100 -17 -122 -17 -29 -16 -31 11 -72 30
-45 31 -81 7 -142 -10 -28 -12 -28 -98 -28 l-88 0 49 44 c27 23 45 45 39 49
-5 3 -62 -36 -126 -89 l-117 -95 -77 23 c-69 19 -92 32 -191 111 -62 49 -114
88 -115 86 -2 -2 -17 -36 -34 -76 l-31 -71 24 -23 24 -23 -22 -23 -22 -23 22
-45 21 -44 -57 -35 -57 -35 -3 37 c-1 20 -7 56 -13 79 -10 36 -7 67 21 212
l33 170 61 21 c33 11 67 20 75 20 9 0 61 -27 116 -60 l100 -59 64 63 c40 40
61 68 56 76 -5 8 -23 -3 -56 -36 -43 -43 -49 -46 -56 -28 -4 10 -26 66 -49
123 l-42 105 24 70 c18 52 36 83 70 117 42 42 44 48 39 85 -6 38 -4 41 59 104
55 53 66 70 66 97 0 23 -5 33 -15 33 -10 0 -15 -10 -15 -33 0 -51 -66 -110
-157 -141 -39 -13 -100 -43 -134 -67 l-63 -42 -35 20 c-34 20 -36 24 -39 79
l-3 59 135 135 136 134 -21 22 c-31 33 -16 44 60 44 45 0 91 8 139 24 l72 25
0 -62 0 -62 53 -32 c28 -17 70 -50 91 -72 l40 -41 -23 -24 -23 -24 46 -68 46
-68 -21 -22 c-22 -23 -20 -43 6 -78 14 -19 15 -19 35 -1 19 17 20 30 20 261
l0 244 -70 46 c-69 46 -70 48 -70 90 l0 44 -151 0 -152 0 -58 63 c-56 60 -58
64 -59 118 0 53 2 56 33 72 41 20 44 20 292 -3z m645 -360 c22 -11 55 -20 75
-20 l37 0 -22 -35 -21 -34 24 -78 24 -79 -23 -53 c-17 -39 -24 -72 -24 -119 0
-63 -2 -68 -37 -104 -32 -33 -43 -38 -82 -38 -39 0 -51 5 -83 37 -36 35 -38
40 -38 103 0 48 -7 79 -25 117 l-24 53 24 81 25 82 -21 33 -21 34 39 0 c21 1
54 9 73 20 44 24 52 24 100 0z m-50 -600 c52 0 57 2 105 50 l50 50 62 -113
c34 -61 80 -130 102 -152 l41 -39 0 -131 c0 -113 3 -142 24 -202 20 -60 23
-78 14 -116 -8 -39 -6 -51 12 -87 l21 -42 -24 -36 c-19 -30 -22 -43 -15 -67 6
-22 2 -47 -15 -92 l-22 -63 -46 0 -46 0 -18 60 c-18 58 -18 60 3 106 16 38 18
52 9 71 -8 18 -7 33 1 57 16 45 15 61 -8 106 -11 22 -20 59 -20 83 0 38 -5 48
-44 86 -59 58 -81 45 -26 -15 37 -40 40 -48 40 -99 l0 -55 -185 0 -185 0 -11
28 c-24 61 -23 100 5 142 l26 40 -30 60 -30 60 -75 0 -75 0 0 57 c0 55 2 59
49 108 29 29 71 91 101 148 l53 99 51 -51 c49 -49 54 -51 106 -51z m-205 -389
c17 -39 17 -40 -4 -74 -27 -43 -27 -87 0 -166 l21 -62 -21 -23 -22 -23 22 -45
21 -44 -39 -65 c-58 -93 -81 -91 -138 15 l-30 56 23 42 22 41 -21 23 -21 23
21 62 c27 80 27 114 -1 166 -22 40 -22 43 -5 77 l17 36 68 0 69 0 18 -39z
m-1088 -233 c-4 -13 -9 -43 -13 -67 -6 -35 -13 -47 -40 -63 -23 -13 -34 -28
-34 -42 0 -12 -11 -33 -25 -46 -19 -18 -25 -34 -25 -66 0 -47 -2 -49 -83 -59
l-57 -7 14 40 c23 65 45 102 120 204 61 83 107 125 140 127 4 1 6 -9 3 -21z
m2658 -11 c1 -1 34 -45 72 -97 74 -100 95 -136 119 -202 l14 -41 -62 7 c-34 4
-66 10 -70 12 -4 3 -8 24 -8 48 0 32 -6 48 -25 66 -14 13 -25 34 -25 46 0 14
-11 29 -33 42 -29 17 -35 28 -45 77 -7 32 -12 62 -12 67 0 6 70 -16 75 -25z
m-2099 -245 c1 -131 19 -206 80 -331 38 -78 61 -109 133 -180 95 -96 188 -151
321 -192 108 -34 292 -34 400 0 211 65 378 208 466 398 47 100 67 190 68 311
l0 102 88 0 c86 0 88 0 94 -26 11 -42 -4 -211 -26 -302 -80 -335 -363 -607
-702 -676 -99 -21 -277 -21 -376 0 -178 37 -352 133 -474 262 -82 87 -118 140
-168 244 -57 118 -80 220 -87 371 l-6 127 94 0 94 0 1 -108z m317 81 c-15 -27
-14 -30 33 -110 49 -82 49 -83 91 -83 41 0 42 0 91 82 48 79 50 84 36 110
l-15 28 195 0 194 0 12 -30 c10 -25 9 -37 -5 -78 -18 -48 -17 -50 7 -123 l25
-74 64 -3 65 -3 24 73 c13 40 23 91 22 113 -2 32 4 50 29 83 27 37 35 42 70
42 l39 0 0 -93 c0 -163 -46 -280 -155 -396 -164 -173 -420 -224 -640 -126
-122 54 -239 177 -289 302 -28 69 -44 181 -38 261 l4 52 79 0 78 0 -16 -27z"/>
<path d="M941 2996 c-14 -17 -7 -36 14 -36 22 0 29 20 13 36 -13 13 -16 13
-27 0z"/>
<path d="M2671 2996 c-14 -17 -7 -36 14 -36 22 0 29 20 13 36 -13 13 -16 13
-27 0z"/>
<path d="M1691 2996 c-9 -10 -8 -16 4 -26 21 -17 51 6 34 26 -6 8 -15 14 -19
14 -4 0 -13 -6 -19 -14z"/>
<path d="M1912 2997 c-10 -11 -9 -17 3 -27 24 -20 45 4 24 26 -14 13 -17 13
-27 1z"/>
<path d="M1690 2525 c0 -11 11 -15 42 -15 29 0 49 -7 65 -22 l23 -21 23 21
c16 15 36 22 65 22 31 0 42 4 42 15 0 11 -12 15 -49 15 -31 0 -53 -5 -61 -15
-7 -8 -18 -15 -25 -15 -7 0 -18 7 -25 15 -8 9 -30 15 -56 15 -32 0 -44 -4 -44
-15z"/>
<path d="M1745 1580 l-70 -70 73 -73 72 -72 72 72 73 73 -70 70 c-38 38 -72
70 -75 70 -3 0 -37 -32 -75 -70z m112 -22 c18 -18 33 -37 33 -43 0 -6 -17 -28
-38 -48 l-38 -37 -39 40 -39 40 39 40 c21 22 41 40 44 40 3 0 20 -14 38 -32z"/>
</g>
</svg>
