<?xml version="1.0" encoding="UTF-8"?>
<svg version="1.1" xmlns="http://www.w3.org/2000/svg" width="128" height="128">
<path d="M0 0 C1.06906586 -0.02517197 2.13813171 -0.05034393 3.23959351 -0.07627869 C5.4969479 -0.11831839 7.75454531 -0.1487253 10.01220703 -0.16821289 C13.43329327 -0.21446997 16.84331261 -0.35139707 20.26171875 -0.49023438 C38.25552528 -0.87505294 38.25552528 -0.87505294 45.0508728 5.38514709 C47.54941232 8.07432559 49.69653663 10.86087497 51.8359375 13.84765625 C52.94488437 15.15313112 54.06765339 16.44714489 55.2109375 17.72265625 C55.72084229 18.3760498 56.23074707 19.02944336 56.75610352 19.70263672 C58.63483426 21.64025009 60.15899182 22.70494854 62.42944336 24.09033203 C67.89935553 27.81873109 72.67331475 32.12447122 74.31462097 38.79232025 C76.27828002 50.67455866 75.4742861 63.03556302 75.09906006 75.01812744 C74.99796087 78.8009016 74.96841931 82.58273078 74.94164562 86.36665344 C74.90652001 90.90247872 74.83251739 95.43740803 74.75390625 99.97265625 C74.74183828 100.82818085 74.72977032 101.68370544 74.71733665 102.56515503 C74.67547915 104.99636205 74.6062746 107.42519041 74.52807617 109.85546875 C74.5188916 110.56414597 74.50970703 111.27282318 74.50024414 112.00297546 C74.29257295 117.11902861 73.12390509 120.95536936 69.8359375 124.84765625 C65.35629052 128.60128445 61.18351832 129.35073093 55.359375 129.36523438 C54.64783264 129.37224365 53.93629028 129.37925293 53.20318604 129.38647461 C50.87202894 129.40395153 48.542105 129.39246991 46.2109375 129.37890625 C44.57861093 129.38160416 42.94628594 129.38548906 41.31396484 129.39050293 C37.90121077 129.39638398 34.4888769 129.38788043 31.07617188 129.36914062 C26.71490019 129.34635148 22.35461329 129.35948212 17.99337769 129.38343048 C14.62516949 129.39792646 11.25719244 129.39326518 7.88897705 129.38291931 C6.28151328 129.3802625 4.67402811 129.3834848 3.06658936 129.39283752 C0.81466568 129.40306658 -1.43569213 129.38741653 -3.6875 129.36523438 C-5.6044165 129.36046082 -5.6044165 129.36046082 -7.56005859 129.35559082 C-13.54906718 128.51152278 -16.86232573 126.52498931 -20.56921387 121.74853516 C-22.86151077 117.13652436 -22.72450962 112.48989531 -22.68164062 107.43359375 C-22.6886499 106.40993713 -22.69565918 105.38628052 -22.70288086 104.331604 C-22.72042698 100.96167547 -22.70884954 97.59259273 -22.6953125 94.22265625 C-22.69800837 91.87288248 -22.70189158 89.5231098 -22.70690918 87.17333984 C-22.71279967 82.25412349 -22.70425536 77.3351981 -22.68554688 72.41601562 C-22.66275806 66.11775551 -22.67588348 59.82017726 -22.69983673 53.52194214 C-22.71430656 48.67141605 -22.70968318 43.82105102 -22.69932556 38.97052002 C-22.69666158 36.6485384 -22.69991644 34.32654205 -22.70924377 32.00457764 C-22.71942843 28.75656529 -22.70388016 25.50964964 -22.68164062 22.26171875 C-22.68973755 21.30670471 -22.69783447 20.35169067 -22.70617676 19.36773682 C-22.62993562 13.34237233 -21.7073846 9.76951586 -18.1640625 4.84765625 C-12.42504985 0.36413869 -7.12641395 0.14113353 0 0 Z " fill="#FA0000" transform="translate(38.1640625,-0.84765625)"/>
<path d="M0 0 C4.07733699 3.00343453 7.21919777 6.52868707 8.82421875 11.34375 C9.78261581 25.14835385 9.78261581 25.14835385 5.82421875 30.34375 C-1.16212608 37.1872248 -4.87923827 38.71794942 -14.75390625 38.6171875 C-20.76003097 38.13724603 -23.5257643 35.15662535 -27.42578125 30.96875 C-31.28958392 26.204742 -32.68546972 21.62032391 -32.484375 15.421875 C-31.52510006 8.96194754 -27.93451138 4.45021136 -22.88671875 0.53125 C-15.96207732 -4.27489382 -7.26082016 -4.12379238 0 0 Z " fill="#FEF9F9" transform="translate(75.17578125,60.65625)"/>
<path d="M0 0 C6.12500488 5.25000418 11.79597541 10.36668531 17 16.5 C21.38081671 21.6092666 26.22334544 26.27167622 31.02148438 30.984375 C31.66279297 31.61730469 32.30410156 32.25023437 32.96484375 32.90234375 C33.5487085 33.47460693 34.13257324 34.04687012 34.73413086 34.63647461 C36 36 36 36 36 37 C24.12 37 12.24 37 0 37 C0 24.79 0 12.58 0 0 Z " fill="#FC4E4E" transform="translate(76,0)"/>
<path d="M0 0 C4.88021201 0.81336867 6.9117976 1.22060767 10.875 3.5625 C11.65617187 4.01753906 12.43734375 4.47257812 13.2421875 4.94140625 C14.11230469 5.46541016 14.11230469 5.46541016 15 6 C15 6.66 15 7.32 15 8 C13.06629769 9.00732399 11.12789694 10.00563288 9.1875 11 C7.56908203 11.8353125 7.56908203 11.8353125 5.91796875 12.6875 C3 14 3 14 0 14 C0 9.38 0 4.76 0 0 Z " fill="#FA0808" transform="translate(58,72)"/>
</svg>
